<svg width="391" height="187" viewBox="0 0 391 187" fill="none" xmlns="http://www.w3.org/2000/svg">
<mask id="mask0" mask-type="alpha" maskUnits="userSpaceOnUse" x="204" y="0" width="187" height="187">
<rect x="204" width="187" height="187" rx="14" fill="#C4C4C4"/>
</mask>
<g mask="url(#mask0)">
<path d="M350.588 -24.5193C333.752 -32.5219 314.916 -37 295.034 -37C260.35 -37 228.849 -23.372 205.594 -1.17862C180.87 22.4166 394.349 -3.71907 350.588 -24.5193Z" fill="#7CCDE3"/>
<path d="M396.402 11.7267C396.55 11.9117 385.834 26.2337 353.628 30.2997C288.623 38.5065 177.019 39.3742 177.188 39.0046C184.092 23.8343 193.835 10.2294 205.739 -1.13112C219.765 3.2481 235.032 4.33937 249.473 1.67822C273.317 -2.6839 294.53 -16.4613 318.116 -22.0759C328.584 -24.5909 339.99 -25.3255 350.732 -24.4722C368.581 -15.9885 384.183 -3.54344 396.402 11.7267Z" fill="#98D5E6"/>
<path d="M422.962 72.3431C423.044 72.8651 276.375 86.6517 204.914 82.6333C181.631 81.324 167.891 67.2472 168.048 66.4787C170.012 56.9007 173.033 47.7081 176.983 39.0279C197.628 27.7276 221.917 21.2061 245.47 21.4635C275.005 21.7658 303.98 31.613 333.516 30.8787C355.45 30.3209 377.559 23.3201 396.197 11.75C409.932 28.9157 419.392 49.6515 422.962 72.3431Z" fill="#B4DDE8"/>
<path d="M424.132 91.9101C424.132 92.6281 424.114 94.0598 424.114 94.0598C424.114 94.0598 383.377 104.335 330.912 103.722C257.427 102.863 164.998 91.01 165 90.7929C165.073 82.196 165.982 73.7988 167.652 65.6789C185.258 76.5421 206.609 81.8624 227.16 79.623C243.501 77.8523 259.024 71.8058 274.158 65.3705C289.292 58.9353 304.34 52.025 320.337 48.3107C343.836 42.8689 368.973 44.7692 391.438 53.623C402.366 57.9327 413.209 64.1287 422.549 71.6001C423.591 78.2171 424.132 85.0005 424.132 91.9101Z" fill="#F25192"/>
<path d="M277.194 134.017C238.321 141.196 171.609 132.916 171.441 132.404C167.261 119.674 165 106.075 165 91.9473C165 91.5742 165.002 91.2015 165.005 90.8291C170.906 86.1497 177.799 81.9772 184.528 78.735C201.172 70.6586 220.057 67.2898 238.468 69.1037C256.664 70.9177 274.04 77.6552 290.856 84.9111C305.023 91.0241 319.099 97.6276 333.804 102.19C335.245 102.637 319.985 126.115 277.194 134.017Z" fill="#D34CA3"/>
<path d="M419.618 126.852C416.904 131.436 391.088 146.879 356.093 149.524C309.758 153.026 255.02 139.02 273.178 131.892C301.765 120.663 326.557 100.494 356.093 92.0718C378.157 85.7511 402.615 86.7505 424.275 94.388C424.092 105.614 422.482 116.494 419.618 126.852Z" fill="#9A50A5"/>
<path d="M407.591 156.573C385.218 195.416 222.953 205.157 199.248 179.028C187.182 165.728 177.841 149.908 172.109 132.453C192.036 121.064 215.363 116.227 237.784 119.293C266.802 123.266 292.802 139.462 321.432 145.768C344.543 150.864 369.034 149.266 391.282 141.233C401.34 137.574 411.312 132.67 420.131 126.607C417.201 137.202 412.959 147.253 407.591 156.573Z" fill="#96D180"/>
<path d="M407.058 156.029C384.732 195.051 342.695 221.346 294.517 221.346C256.452 221.346 222.221 204.932 198.516 178.795C202.449 180.299 206.849 181.599 210.882 182.735C233.432 188.954 257.707 188.782 280.128 182.174C294.487 177.941 307.982 171.203 322.082 166.107C348.986 156.405 378.599 152.989 407.058 156.029Z" fill="#86AB79"/>
<circle cx="274.5" cy="16.5" r="12.5" fill="#1186A6"/>
<circle cx="366.5" cy="89.5" r="12.5" fill="#DD86A9"/>
<circle cx="238.5" cy="153.5" r="12.5" fill="#498333"/>
<path d="M284 25L356 81" stroke="url(#paint0_linear)" stroke-dasharray="5 5"/>
<path d="M250 148L354 96" stroke="url(#paint1_linear)" stroke-dasharray="5 5"/>
</g>
<path d="M18.286 110.82C15.334 110.82 12.6553 110.082 10.25 108.606C7.84467 107.13 5.904 105.162 4.428 102.702C3.00667 100.187 2.296 97.3993 2.296 94.338V68.344C2.296 65.392 3.00667 62.686 4.428 60.226C5.904 57.7113 7.84467 55.716 10.25 54.24C12.71 52.764 15.3887 52.026 18.286 52.026C21.2927 52.026 23.9987 52.764 26.404 54.24C28.864 55.6613 30.8047 57.602 32.226 60.062C33.6473 62.522 34.358 65.2827 34.358 68.344V72.116C34.358 72.3347 34.2213 72.444 33.948 72.444H24.764C24.5453 72.444 24.436 72.3347 24.436 72.116V69C24.436 66.9227 23.8347 65.2007 22.632 63.834C21.484 62.4673 20.0353 61.784 18.286 61.784C16.7007 61.784 15.2793 62.44 14.022 63.752C12.8193 65.064 12.218 66.5947 12.218 68.344V94.338C12.218 96.142 12.8193 97.7 14.022 99.012C15.2247 100.269 16.646 100.898 18.286 100.898C20.0353 100.898 21.484 100.269 22.632 99.012C23.8347 97.7547 24.436 96.1967 24.436 94.338V90.32H18.696C18.4227 90.32 18.286 90.1833 18.286 89.91V80.726C18.286 80.4527 18.4227 80.316 18.696 80.316H34.03C34.2487 80.316 34.358 80.4527 34.358 80.726V94.338C34.358 97.3993 33.62 100.187 32.144 102.702C30.7227 105.162 28.8093 107.13 26.404 108.606C23.9987 110.082 21.2927 110.82 18.286 110.82ZM40.606 110C40.3327 110 40.196 109.863 40.196 109.59L40.278 53.256C40.278 53.0373 40.3873 52.928 40.606 52.928H49.79C50.0087 52.928 50.118 53.0373 50.118 53.256L50.2 109.59C50.2 109.863 50.0907 110 49.872 110H40.606ZM71.3528 110.82C68.4008 110.82 65.6948 110.082 63.2348 108.606C60.8295 107.075 58.8888 105.08 57.4128 102.62C55.9915 100.105 55.2808 97.3447 55.2808 94.338V90.566C55.2808 90.2927 55.4175 90.156 55.6908 90.156H64.8748C65.0935 90.156 65.2028 90.2927 65.2028 90.566V94.338C65.2028 96.142 65.8041 97.7 67.0068 99.012C68.2095 100.269 69.6581 100.898 71.3528 100.898C73.0475 100.898 74.4961 100.242 75.6988 98.93C76.9015 97.618 77.5028 96.0873 77.5028 94.338C77.5028 92.3153 76.1908 90.566 73.5668 89.09C72.6921 88.598 71.3255 87.8327 69.4668 86.794C67.6081 85.7553 65.8588 84.7713 64.2188 83.842C61.2121 82.0927 58.9708 79.906 57.4948 77.282C56.0735 74.6033 55.3628 71.5967 55.3628 68.262C55.3628 65.2007 56.1008 62.4673 57.5768 60.062C59.0528 57.602 60.9935 55.6613 63.3988 54.24C65.8588 52.8187 68.5101 52.108 71.3528 52.108C74.2501 52.108 76.9015 52.846 79.3068 54.322C81.7668 55.7433 83.7075 57.684 85.1288 60.144C86.6048 62.5493 87.3428 65.2553 87.3428 68.262V74.986C87.3428 75.2047 87.2335 75.314 87.0148 75.314H77.8308C77.6121 75.314 77.5028 75.2047 77.5028 74.986L77.4208 68.262C77.4208 66.3487 76.8195 64.7907 75.6168 63.588C74.4141 62.3853 72.9928 61.784 71.3528 61.784C69.6581 61.784 68.2095 62.44 67.0068 63.752C65.8041 65.0093 65.2028 66.5127 65.2028 68.262C65.2028 70.066 65.5855 71.5693 66.3508 72.772C67.1161 73.9747 68.5101 75.1227 70.5328 76.216C70.8061 76.38 71.3255 76.6807 72.0908 77.118C72.9108 77.5007 73.7855 77.9653 74.7148 78.512C75.6441 79.004 76.4641 79.4413 77.1748 79.824C77.9401 80.2067 78.4048 80.4527 78.5688 80.562C81.3021 82.0927 83.4615 83.9787 85.0468 86.22C86.6321 88.4067 87.4248 91.1127 87.4248 94.338C87.4248 97.454 86.6868 100.269 85.2108 102.784C83.7895 105.244 81.8488 107.212 79.3888 108.688C76.9835 110.109 74.3048 110.82 71.3528 110.82ZM106.187 110.82C103.235 110.82 100.529 110.082 98.0688 108.606C95.6635 107.075 93.7228 105.08 92.2468 102.62C90.8255 100.105 90.1148 97.3447 90.1148 94.338V90.566C90.1148 90.2927 90.2515 90.156 90.5248 90.156H99.7088C99.9275 90.156 100.037 90.2927 100.037 90.566V94.338C100.037 96.142 100.638 97.7 101.841 99.012C103.043 100.269 104.492 100.898 106.187 100.898C107.881 100.898 109.33 100.242 110.533 98.93C111.735 97.618 112.337 96.0873 112.337 94.338C112.337 92.3153 111.025 90.566 108.401 89.09C107.526 88.598 106.159 87.8327 104.301 86.794C102.442 85.7553 100.693 84.7713 99.0528 83.842C96.0461 82.0927 93.8048 79.906 92.3288 77.282C90.9075 74.6033 90.1968 71.5967 90.1968 68.262C90.1968 65.2007 90.9348 62.4673 92.4108 60.062C93.8868 57.602 95.8275 55.6613 98.2328 54.24C100.693 52.8187 103.344 52.108 106.187 52.108C109.084 52.108 111.735 52.846 114.141 54.322C116.601 55.7433 118.541 57.684 119.963 60.144C121.439 62.5493 122.177 65.2553 122.177 68.262V74.986C122.177 75.2047 122.067 75.314 121.849 75.314H112.665C112.446 75.314 112.337 75.2047 112.337 74.986L112.255 68.262C112.255 66.3487 111.653 64.7907 110.451 63.588C109.248 62.3853 107.827 61.784 106.187 61.784C104.492 61.784 103.043 62.44 101.841 63.752C100.638 65.0093 100.037 66.5127 100.037 68.262C100.037 70.066 100.419 71.5693 101.185 72.772C101.95 73.9747 103.344 75.1227 105.367 76.216C105.64 76.38 106.159 76.6807 106.925 77.118C107.745 77.5007 108.619 77.9653 109.549 78.512C110.478 79.004 111.298 79.4413 112.009 79.824C112.774 80.2067 113.239 80.4527 113.403 80.562C116.136 82.0927 118.295 83.9787 119.881 86.22C121.466 88.4067 122.259 91.1127 122.259 94.338C122.259 97.454 121.521 100.269 120.045 102.784C118.623 105.244 116.683 107.212 114.223 108.688C111.817 110.109 109.139 110.82 106.187 110.82ZM133.986 110C133.822 110 133.74 109.891 133.74 109.672L133.822 86.384L122.834 53.256C122.779 53.0373 122.861 52.928 123.08 52.928H132.182C132.455 52.928 132.619 53.0373 132.674 53.256L138.742 75.314L144.892 53.256C144.947 53.0373 145.083 52.928 145.302 52.928H154.486C154.705 52.928 154.787 53.0373 154.732 53.256L143.662 86.056L143.744 109.672C143.744 109.891 143.635 110 143.416 110H133.986Z" fill="#1186A6"/>
<path d="M43.26 144C43.1667 144 43.12 143.953 43.12 143.86L43.176 124.624C43.176 124.549 43.2133 124.512 43.288 124.512L48.524 124.484C49.5507 124.465 50.484 124.708 51.324 125.212C52.1827 125.716 52.864 126.397 53.368 127.256C53.872 128.096 54.124 129.029 54.124 130.056V138.092C54.124 139.175 53.8627 140.164 53.34 141.06C52.8173 141.937 52.1173 142.637 51.24 143.16C50.3627 143.683 49.3733 143.953 48.272 143.972L43.26 144ZM46.536 140.556H48.272C48.9627 140.556 49.5413 140.313 50.008 139.828C50.4933 139.343 50.736 138.764 50.736 138.092V130.028C50.736 129.431 50.512 128.917 50.064 128.488C49.6347 128.04 49.1213 127.825 48.524 127.844L46.564 127.872L46.536 140.556ZM54.5274 143.86L57.9994 124.624C58.018 124.549 58.0647 124.512 58.1394 124.512H62.1994C62.274 124.512 62.3207 124.549 62.3394 124.624L65.6714 143.86C65.69 143.953 65.6527 144 65.5594 144H62.4514C62.3767 144 62.33 143.953 62.3114 143.86L62.0034 141.816H58.1954L57.8874 143.86C57.8687 143.953 57.822 144 57.7474 144H54.6394C54.5647 144 54.5274 143.953 54.5274 143.86ZM58.7554 138.82H61.4434L60.2954 130.952L60.1274 129.916L60.0154 130.952L58.7554 138.82ZM71.6417 144.28C70.6337 144.28 69.7097 144.028 68.8697 143.524C68.0484 143.001 67.3857 142.32 66.8817 141.48C66.3964 140.621 66.1537 139.679 66.1537 138.652V137.364C66.1537 137.271 66.2004 137.224 66.2937 137.224H69.4297C69.5044 137.224 69.5417 137.271 69.5417 137.364V138.652C69.5417 139.268 69.7471 139.8 70.1577 140.248C70.5684 140.677 71.0631 140.892 71.6417 140.892C72.2204 140.892 72.7151 140.668 73.1257 140.22C73.5364 139.772 73.7417 139.249 73.7417 138.652C73.7417 137.961 73.2937 137.364 72.3977 136.86C72.0991 136.692 71.6324 136.431 70.9977 136.076C70.3631 135.721 69.7657 135.385 69.2057 135.068C68.1791 134.471 67.4137 133.724 66.9097 132.828C66.4244 131.913 66.1817 130.887 66.1817 129.748C66.1817 128.703 66.4337 127.769 66.9377 126.948C67.4417 126.108 68.1044 125.445 68.9257 124.96C69.7657 124.475 70.6711 124.232 71.6417 124.232C72.6311 124.232 73.5364 124.484 74.3577 124.988C75.1977 125.473 75.8604 126.136 76.3457 126.976C76.8497 127.797 77.1017 128.721 77.1017 129.748V132.044C77.1017 132.119 77.0644 132.156 76.9897 132.156H73.8537C73.7791 132.156 73.7417 132.119 73.7417 132.044L73.7137 129.748C73.7137 129.095 73.5084 128.563 73.0977 128.152C72.6871 127.741 72.2017 127.536 71.6417 127.536C71.0631 127.536 70.5684 127.76 70.1577 128.208C69.7471 128.637 69.5417 129.151 69.5417 129.748C69.5417 130.364 69.6724 130.877 69.9337 131.288C70.1951 131.699 70.6711 132.091 71.3617 132.464C71.4551 132.52 71.6324 132.623 71.8937 132.772C72.1737 132.903 72.4724 133.061 72.7897 133.248C73.1071 133.416 73.3871 133.565 73.6297 133.696C73.8911 133.827 74.0497 133.911 74.1057 133.948C75.0391 134.471 75.7764 135.115 76.3177 135.88C76.8591 136.627 77.1297 137.551 77.1297 138.652C77.1297 139.716 76.8777 140.677 76.3737 141.536C75.8884 142.376 75.2257 143.048 74.3857 143.552C73.5644 144.037 72.6497 144.28 71.6417 144.28ZM79.189 144C79.1144 144 79.077 143.953 79.077 143.86L79.105 124.624C79.105 124.549 79.1517 124.512 79.245 124.512H82.353C82.4464 124.512 82.493 124.549 82.493 124.624L82.465 132.24H86.665V124.624C86.665 124.549 86.7024 124.512 86.777 124.512H89.885C89.9784 124.512 90.025 124.549 90.025 124.624L90.081 143.86C90.081 143.953 90.0344 144 89.941 144H86.805C86.7117 144 86.665 143.953 86.665 143.86V135.628H82.465V143.86C82.465 143.953 82.4277 144 82.353 144H79.189ZM92.4781 144C92.4034 144 92.3661 143.953 92.3661 143.86L92.4221 124.624C92.4221 124.549 92.4594 124.512 92.5341 124.512H97.9101C98.9741 124.512 99.9261 124.773 100.766 125.296C101.606 125.8 102.269 126.472 102.754 127.312C103.239 128.152 103.482 129.067 103.482 130.056C103.482 130.859 103.295 131.605 102.922 132.296C102.567 132.987 102.138 133.547 101.634 133.976C102.175 134.517 102.595 135.143 102.894 135.852C103.193 136.561 103.342 137.308 103.342 138.092C103.342 139.175 103.081 140.164 102.558 141.06C102.035 141.956 101.326 142.675 100.43 143.216C99.5528 143.739 98.5728 144 97.4901 144H92.4781ZM95.7821 132.24H97.9101C98.5634 132.24 99.0861 132.016 99.4781 131.568C99.8888 131.101 100.094 130.597 100.094 130.056C100.094 129.459 99.8794 128.945 99.4501 128.516C99.0208 128.068 98.5074 127.844 97.9101 127.844H95.7821V132.24ZM95.7541 140.584H97.4901C98.1621 140.584 98.7408 140.341 99.2261 139.856C99.7114 139.352 99.9541 138.764 99.9541 138.092C99.9541 137.42 99.7114 136.841 99.2261 136.356C98.7408 135.871 98.1621 135.628 97.4901 135.628H95.7821L95.7541 140.584ZM110.534 144.28C109.526 144.28 108.602 144.028 107.762 143.524C106.941 143.001 106.278 142.32 105.774 141.48C105.27 140.621 105.018 139.679 105.018 138.652L105.046 129.776C105.046 128.749 105.289 127.816 105.774 126.976C106.278 126.136 106.95 125.464 107.79 124.96C108.63 124.456 109.545 124.204 110.534 124.204C111.542 124.204 112.457 124.456 113.278 124.96C114.1 125.464 114.753 126.136 115.238 126.976C115.742 127.816 115.994 128.749 115.994 129.776L116.022 138.652C116.022 139.679 115.77 140.621 115.266 141.48C114.781 142.32 114.118 143.001 113.278 143.524C112.457 144.028 111.542 144.28 110.534 144.28ZM110.534 140.892C111.094 140.892 111.58 140.668 111.99 140.22C112.42 139.753 112.634 139.231 112.634 138.652L112.606 129.776C112.606 129.16 112.41 128.637 112.018 128.208C111.626 127.779 111.132 127.564 110.534 127.564C109.956 127.564 109.461 127.779 109.05 128.208C108.64 128.619 108.434 129.141 108.434 129.776V138.652C108.434 139.268 108.64 139.8 109.05 140.248C109.461 140.677 109.956 140.892 110.534 140.892ZM116.707 143.86L120.179 124.624C120.198 124.549 120.244 124.512 120.319 124.512H124.379C124.454 124.512 124.5 124.549 124.519 124.624L127.851 143.86C127.87 143.953 127.832 144 127.739 144H124.631C124.556 144 124.51 143.953 124.491 143.86L124.183 141.816H120.375L120.067 143.86C120.048 143.953 120.002 144 119.927 144H116.819C116.744 144 116.707 143.953 116.707 143.86ZM120.935 138.82H123.623L122.475 130.952L122.307 129.916L122.195 130.952L120.935 138.82ZM129.72 144C129.646 144 129.608 143.953 129.608 143.86L129.664 124.624C129.664 124.549 129.702 124.512 129.776 124.512H135.432C136.44 124.512 137.364 124.764 138.204 125.268C139.063 125.753 139.744 126.416 140.248 127.256C140.752 128.077 141.004 129.011 141.004 130.056C141.004 130.747 140.902 131.372 140.696 131.932C140.491 132.473 140.248 132.94 139.968 133.332C139.688 133.705 139.436 133.985 139.212 134.172C140.22 135.292 140.724 136.608 140.724 138.12L140.752 143.86C140.752 143.953 140.706 144 140.612 144H137.448C137.374 144 137.336 143.972 137.336 143.916V138.12C137.336 137.448 137.094 136.869 136.608 136.384C136.142 135.88 135.563 135.628 134.872 135.628H133.024L132.996 143.86C132.996 143.953 132.959 144 132.884 144H129.72ZM133.024 132.268H135.432C136.011 132.268 136.524 132.053 136.972 131.624C137.42 131.195 137.644 130.672 137.644 130.056C137.644 129.459 137.42 128.945 136.972 128.516C136.543 128.087 136.03 127.872 135.432 127.872H133.024V132.268ZM143.256 144C143.163 144 143.116 143.953 143.116 143.86L143.172 124.624C143.172 124.549 143.209 124.512 143.284 124.512L148.52 124.484C149.547 124.465 150.48 124.708 151.32 125.212C152.179 125.716 152.86 126.397 153.364 127.256C153.868 128.096 154.12 129.029 154.12 130.056V138.092C154.12 139.175 153.859 140.164 153.336 141.06C152.813 141.937 152.113 142.637 151.236 143.16C150.359 143.683 149.369 143.953 148.268 143.972L143.256 144ZM146.532 140.556H148.268C148.959 140.556 149.537 140.313 150.004 139.828C150.489 139.343 150.732 138.764 150.732 138.092V130.028C150.732 129.431 150.508 128.917 150.06 128.488C149.631 128.04 149.117 127.825 148.52 127.844L146.56 127.872L146.532 140.556Z" fill="#554A4A"/>
<defs>
<linearGradient id="paint0_linear" x1="281.636" y1="28.8382" x2="352.883" y2="84.4319" gradientUnits="userSpaceOnUse">
<stop stop-color="#1186A6"/>
<stop offset="1" stop-color="#830E3D"/>
</linearGradient>
<linearGradient id="paint1_linear" x1="252.563" y1="151.728" x2="355.704" y2="100.415" gradientUnits="userSpaceOnUse">
<stop offset="0.00418635" stop-color="#498333"/>
<stop offset="1" stop-color="#830E3D"/>
</linearGradient>
</defs>
</svg>
